# xmcd
#
# Track frame offsets:
# 182
# 14617
# 28102
# 41827
# 58202
# 74502
# 89330
# 104637
# 120265
# 134877
# 148837
# 164662
# 180040
# 195285
# 210035
# 223935
# 238055
# 251755
# 266732
# 281170
# 296037
# 310507
#
# Disc length: 4329 seconds
#
# Revision: 0
# Processed by: cddbd v1.4PL0 Copyright (c) Steve Scherf et al.
# Submitted via: Audion 3.0.2 (http://www.panic.com/audion/)
#
DISCID=5d10e716
DTITLE=Various Artist - Memphis Country Blues Recordings 1
DYEAR=1900
DGENRE=
TTITLE0=Downtown Blues/Frank Stokes
TTITLE1=Bedtime Blues/Frank Stokes
TTITLE2=What's the Matter Blues/Frank Stokes
TTITLE3=Staggering Blues/Rosie Mae Moore
TTITLE4=Ha-Ha Blues/Rosie Mae Moore
TTITLE5=School Girl Blues/Rosie Mae Moore
TTITLE6=Stranger Blues/Rosie Mae Moore
TTITLE7=Cool Drink of Water Blues/Tommy Johnson
TTITLE8=Big Road Blues/Tommy Johnson
TTITLE9=Bye Bye Blues/Tommy Johnson
TTITLE10=Maggie Campbell Blues/Tommy Johnson
TTITLE11=Saturday Blues/Ishman Bracey
TTITLE12=Left Alone Blues/Ishman Bracey
TTITLE13=Mistreatin' Blues/Frank Stokes
TTITLE14=It Won't Be Long Now/Frank Stokes
TTITLE15=Nehi Mamma Blues/Frank Stokes
TTITLE16=I Got Mine/Frank Stokes
TTITLE17=Stomp That Thing/Frank Stokes
TTITLE18='Tain't Nobody's Business-Part 1/Frank Stokes
TTITLE19='Tain't Nobody's Business-Part 2/Frank Stokes
TTITLE20=Take Me Back/Frank Stokes
TTITLE21=How Long/Frank Stokes
EXTD=
EXTT0=
EXTT1=
EXTT2=
EXTT3=
EXTT4=
EXTT5=
EXTT6=
EXTT7=
EXTT8=
EXTT9=
EXTT10=
EXTT11=
EXTT12=
EXTT13=
EXTT14=
EXTT15=
EXTT16=
EXTT17=
EXTT18=
EXTT19=
EXTT20=
EXTT21=
PLAYORDER=
